PathFileType	4	(X/Y/Z)	C:/Users/opensim2020/Desktop/walking_exp_matlab/subject01_walking05_straight_04.trc																																																																																																																															
DataRate	CameraRate	NumFrames	NumMarkers	Units	OrigDataRate	OrigDataStartFrame	OrigNumFrames																																																																																																																											
100	100	7	43	mm	100	2987	283																																																																																																																											
Frame#	Time	LFHD			RFHD			LBHD			RBHD			C7			T10			CLAV			STRN			RBAK			LSHO			LUPA			LELB			LFRM			LWRA			LWRB			LFIN			RSHO			RUPA			RELB			RFRM			RWRA			RWRB			RFIN			LASI			RASI			LPSI			RPSI			LTHI			LKNE			LTIB			LANK			LHEE			LTOE			RTHI			RKNE			RTIB			RANK			RHEE			RTOE			*39			*40			*41			*42		
		X1	Y1	Z1	X2	Y2	Z2	X3	Y3	Z3	X4	Y4	Z4	X5	Y5	Z5	X6	Y6	Z6	X7	Y7	Z7	X8	Y8	Z8	X9	Y9	Z9	X10	Y10	Z10	X11	Y11	Z11	X12	Y12	Z12	X13	Y13	Z13	X14	Y14	Z14	X15	Y15	Z15	X16	Y16	Z16	X17	Y17	Z17	X18	Y18	Z18	X19	Y19	Z19	X20	Y20	Z20	X21	Y21	Z21	X22	Y22	Z22	X23	Y23	Z23	X24	Y24	Z24	X25	Y25	Z25	X26	Y26	Z26	X27	Y27	Z27	X28	Y28	Z28	X29	Y29	Z29	X30	Y30	Z30	X31	Y31	Z31	X32	Y32	Z32	X33	Y33	Z33	X34	Y34	Z34	X35	Y35	Z35	X36	Y36	Z36	X37	Y37	Z37	X38	Y38	Z38	X39	Y39	Z39	X40	Y40	Z40	X41	Y41	Z41	X42	Y42	Z42	X43	Y43	Z43
																																																																																																																																		
213	2.12	556.36713	1670.88525	-1549.85168	574.2196	1679.1134	-1436.76135	440.52905	1624.83667	-1536.724	456.07751	1632.71228	-1416.31641	409.76526	1426.62793	-1488.5575	386.21445	1134.49426	-1471.58362	557.6488	1366.5022	-1488.44482	609.26294	1214.1759	-1488.4021	366.39511	1233.08655	-1401.30371	489.73288	1388.84143	-1649.04175	464.52921	1202.90686	-1730.23547	458.43033	1052.78979	-1731.01233	500.16345	947.61115	-1756.6908	582.83081	833.80103	-1739.03955	527.0387	828.17603	-1763.42896	573.41608	754.46533	-1765.28809	494.68042	1396.06702	-1337.02319	444.01163	1201.10242	-1226.36816	443.58984	1075.87488	-1218.86353	476.13962	959.57538	-1186.44128	559.43732	844.26593	-1206.98889	519.86426	846.06195	-1164.20789	556.16119	767.45343	-1169.73022	569.42633	933.42047	-1571.90918	554.90619	931.4837	-1354.90051	379.73407	941.92273	-1529.72449	373.14832	939.03107	-1385.45361	562.41638	602.40967	-1622.95007	563.64282	468.09705	-1601.49292	515.01599	283.09753	-1609.74072	487.61304	67.8894	-1552.64844	440.62537	39.74046	-1501.51624	636.21185	30.20443	-1551.52454	548.81494	596.0993	-1291.7738	570.7326	441.40378	-1306.36182	421.67059	350.46268	-1315.19226	268.77148	217.77711	-1371.31665	220.88484	224.36757	-1433.75635	309.89679	80.74426	-1352.57776	559.99976	1711.73511	-1460.08386	-1973.20496	1023.21204	3101.90967	-2012.51184	1021.95813	3140.65869	NaN	NaN	NaN
214	2.13	566.17865	1671.41858	-1549.63928	583.72192	1679.51355	-1436.50574	450.21652	1625.53418	-1536.9292	465.39816	1633.26001	-1416.45862	419.07285	1427.11597	-1489.10535	395.17917	1135.12781	-1472.54492	566.77673	1367.11926	-1488.53137	618.16638	1214.68604	-1488.6637	375.18604	1233.62646	-1402.47632	499.64941	1389.81628	-1649.38013	476.39273	1204.14941	-1731.27429	472.37366	1053.87024	-1733.28088	516.70361	949.71375	-1759.14307	602.07855	838.02429	-1741.75452	546.45337	831.00201	-1766.06445	594.97821	758.97839	-1768.87842	503.17755	1396.53577	-1337.27893	451.08636	1201.32568	-1227.69727	449.9357	1076.36267	-1220.51978	480.78635	959.75964	-1188.0332	561.76312	842.57159	-1208.40662	522.53033	845.38074	-1165.36487	556.30811	765.32788	-1171.58716	578.01898	933.88312	-1573.11133	564.06934	932.59998	-1356.19092	388.53629	942.52814	-1529.83203	382.61572	940.15186	-1385.30164	567.44141	602.15723	-1623.27747	566.57599	467.70938	-1601.9856	516.54382	283.23987	-1610.01453	487.80148	68.03431	-1552.62097	440.88367	40.01357	-1501.31152	636.26593	29.99953	-1551.54163	564.19592	598.25995	-1292.578	588.59314	443.9129	-1307.55322	440.77808	350.51672	-1316.71936	291.2261	214.18481	-1372.50562	242.00786	218.48862	-1434.51758	339.11066	79.99268	-1353.13171	569.65594	1712.13623	-1459.80261	-1973.12854	1023.23322	3101.9187	-2012.60046	1022.17194	3140.52295	NaN	NaN	NaN
215	2.14	575.90338	1671.91626	-1549.28027	593.16071	1679.7793	-1436.04285	459.89218	1626.22791	-1537.01123	474.8183	1633.67834	-1416.39551	428.1806	1427.70813	-1489.7168	404.15826	1135.68054	-1473.41956	575.80463	1367.75842	-1488.62122	627.24091	1215.30664	-1488.95825	384.01212	1234.07532	-1403.5343	509.49164	1390.81067	-1649.67102	488.18704	1205.35303	-1732.32739	486.19675	1054.89282	-1735.4032	533.17712	951.83734	-1761.4386	621.30872	842.44659	-1744.31482	565.93219	834.05847	-1768.68579	616.54645	763.67322	-1772.25696	511.56488	1396.95862	-1337.58118	458.08582	1201.4823	-1228.94092	456.39954	1076.7135	-1222.29968	485.58853	959.78442	-1189.65723	563.89886	840.87964	-1209.77747	524.93402	844.71539	-1166.71545	556.45502	763.54718	-1173.28015	586.40875	934.27692	-1574.23242	573.49365	933.7392	-1357.39453	397.1969	943.14331	-1529.82227	391.97211	941.15857	-1385.10522	572.37531	601.90814	-1623.61877	569.54865	467.42615	-1602.45361	517.87115	283.38977	-1610.45801	487.91931	68.19503	-1552.73499	440.92581	40.40727	-1501.35193	636.37823	29.93749	-1551.58972	579.00574	600.29547	-1293.37903	605.67438	446.4917	-1308.7384	459.93747	350.23877	-1318.09241	314.21942	209.5228	-1373.68237	263.90167	211.2442	-1435.11536	368.98203	78.50104	-1354.11316	579.24371	1712.45618	-1459.32556	-1973.12097	1023.2558	3101.99707	-2012.62134	1022.14435	3140.61719	NaN	NaN	NaN
216	2.15	585.68451	1672.46423	-1548.83044	602.58698	1680.047	-1435.4895	469.55725	1626.91943	-1536.99243	484.10095	1634.05457	-1416.32349	437.13675	1428.26038	-1490.29114	413.08652	1136.21423	-1474.25464	584.72986	1368.22705	-1488.59985	636.16943	1215.77576	-1489.19885	392.84018	1234.45715	-1404.52014	519.19897	1391.71863	-1649.86755	499.88412	1206.58459	-1733.33313	499.87906	1055.96582	-1737.32654	549.54218	954.06287	-1763.58508	640.5788	847.21515	-1746.92493	585.39825	837.20654	-1771.07581	638.09363	768.71265	-1775.47864	519.96771	1397.448	-1337.89697	464.93747	1201.56519	-1230.16992	462.76068	1077.02039	-1224.05249	490.07428	959.79425	-1191.23499	566.29443	839.39087	-1210.95776	527.31207	844.09161	-1168.02905	556.888	761.95465	-1174.76978	594.0694	934.19604	-1574.9834	582.6037	934.79999	-1358.55591	405.8598	943.75146	-1529.74121	401.37454	942.01428	-1384.83459	577.45166	601.9541	-1623.66077	572.52869	467.14514	-1602.94336	519.18793	283.64896	-1610.76245	488.08365	68.44994	-1552.65759	441.0455	40.78806	-1501.26965	636.492	29.85713	-1551.61951	593.66937	602.60699	-1294.10864	622.6496	449.14148	-1310.03564	479.06149	349.08923	-1319.50354	337.9704	203.90401	-1374.73389	286.54807	203.12187	-1435.67419	399.5079	76.35606	-1355.22937	588.5921	1712.68982	-1458.80969	-1973.21948	1023.23425	3101.9043	-2012.63257	1022.13165	3140.50317	NaN	NaN	NaN
217	2.16	595.3623	1672.93469	-1548.26001	611.90137	1680.22009	-1434.82202	479.16223	1627.50989	-1536.86328	493.32324	1634.40076	-1416.1991	446.23715	1428.70166	-1490.67651	421.98392	1136.65063	-1475.12854	593.84546	1368.83374	-1488.68176	645.17511	1216.35144	-1489.3938	401.63589	1234.81372	-1405.44763	528.81677	1392.55627	-1650.02551	511.44409	1207.79944	-1734.39453	513.29645	1056.92273	-1739.02686	565.76349	956.33179	-1765.5719	659.71246	852.12042	-1749.35693	604.72827	840.54962	-1773.33875	659.53125	773.92047	-1778.54773	528.58191	1397.58875	-1337.98645	471.74796	1201.61462	-1231.36072	468.99448	1077.18225	-1225.96851	494.05737	959.86731	-1192.68127	568.78949	838.07947	-1212.07446	529.67938	843.52502	-1169.23242	557.4043	760.62781	-1176.09253	603.25708	934.9339	-1576.14343	591.73102	935.76184	-1359.67834	414.4502	944.34338	-1529.66199	410.6019	942.83051	-1384.54333	581.92963	601.60785	-1624.14624	575.49304	466.9162	-1603.42542	520.48602	283.84482	-1610.97583	488.3548	68.76614	-1552.63208	441.26382	41.36032	-1501.17261	636.57642	29.73434	-1551.64673	607.8866	604.75531	-1294.69592	638.85095	452.15222	-1311.43396	498.54608	347.35959	-1320.81714	362.23364	197.31223	-1375.80664	310.05273	193.91611	-1436.33899	430.76895	73.59293	-1356.43652	598.20276	1713.03076	-1458.07727	-1973.09717	1023.44647	3101.86597	-2012.48096	1022.00507	3140.67114	NaN	NaN	NaN
218	2.17	604.98846	1673.34924	-1547.63135	621.24506	1680.32507	-1434.11316	488.78354	1628.03845	-1536.65552	502.54758	1634.61243	-1415.95239	455.30893	1429.09033	-1491.07312	430.95499	1137.04773	-1475.88965	602.83179	1369.18213	-1488.64075	654.09155	1216.67908	-1489.55664	410.50613	1235.10535	-1406.30664	538.40167	1393.37866	-1650.13086	522.9342	1208.92639	-1735.39197	526.63354	1057.80383	-1740.5144	581.73151	958.60522	-1767.38855	678.67932	857.1817	-1751.72009	624.0177	844.04266	-1775.35645	680.73962	779.32703	-1781.47034	537.06378	1397.72278	-1338.11902	478.59222	1201.63184	-1232.49316	475.28082	1077.43774	-1227.31592	498.36557	959.7796	-1194.17139	571.47961	836.84955	-1212.98853	530.70966	842.91187	-1171.29028	558.20953	759.43268	-1177.30603	611.73822	935.13434	-1577.11743	600.84406	936.64294	-1360.70996	422.97797	944.73096	-1529.45679	419.77249	943.46948	-1384.27148	586.74402	601.39551	-1624.4292	578.52002	466.60672	-1603.85352	521.90265	284.09766	-1611.09216	488.56451	69.00477	-1552.5769	441.22198	42.26196	-1501.24426	636.65424	29.63081	-1551.68652	621.91272	607.00537	-1295.16589	654.97192	454.47632	-1312.93628	518.48682	344.65628	-1321.57019	387.14542	189.90106	-1376.91577	334.54169	183.8508	-1436.94458	462.24826	70.76337	-1357.66931	607.65753	1713.1958	-1457.29529	-1973.13916	1023.42944	3101.81128	-2012.64063	1022.14777	3140.6521	NaN	NaN	NaN
219	2.18	614.57642	1673.64294	-1546.89783	630.586	1680.36084	-1433.34229	498.27081	1628.41272	-1536.39771	511.71576	1634.6449	-1415.61145	464.49957	1429.39075	-1491.37549	439.88257	1137.35486	-1476.60083	611.86859	1369.49988	-1488.52991	663.164	1217.09473	-1489.7113	419.35901	1235.29871	-1407.14868	547.98114	1394.08813	-1650.16772	534.25574	1210.0072	-1736.30005	539.75525	1058.66992	-1741.80212	597.48462	960.85797	-1769.00806	697.39484	862.3667	-1753.896	643.07819	847.68372	-1777.21313	701.73602	785.01459	-1784.22974	545.74188	1397.8042	-1338.16309	485.42694	1201.56042	-1233.53943	481.56757	1077.49561	-1228.97021	502.67252	959.57727	-1195.57422	574.07269	835.66669	-1213.896	533.29523	842.07111	-1172.64978	559.19458	758.41797	-1178.3197	619.89264	934.98608	-1577.85815	609.95172	937.36908	-1361.66418	431.41409	944.99396	-1529.255	428.86203	943.9339	-1383.83032	591.55707	601.09424	-1624.60657	581.57794	466.28113	-1604.1748	523.4682	284.36087	-1610.95813	488.83475	69.41207	-1552.578	441.60196	42.78888	-1501.04285	636.76904	29.568	-1551.71887	635.58099	608.96729	-1295.54797	670.69348	456.6391	-1314.40051	538.60095	341.22232	-1322.53772	412.57309	181.86061	-1378.15051	359.92667	172.95676	-1437.81311	494.25592	67.25633	-1358.6488	617.01776	1713.31677	-1456.44666	-1973.10938	1023.48212	3101.854	-2012.61243	1022.12445	3140.77026	NaN	NaN	NaN
